<svg xmlns="http://www.w3.org/2000/svg" viewBox="0 0 128 128" role="img" aria-label="Verdant Chat"><defs><linearGradient id="g" x1="18" y1="16" x2="112" y2="116" gradientUnits="userSpaceOnUse"><stop stop-color="#60A5FA"/><stop offset=".55" stop-color="#2563EB"/><stop offset="1" stop-color="#1E40AF"/></linearGradient><filter id="s" x="0" y="0" width="128" height="128" color-interpolation-filters="sRGB"><feDropShadow dx="0" dy="12" stdDeviation="12" flood-opacity=".22"/></filter></defs><rect x="14" y="14" width="100" height="100" rx="30" fill="url(#g)" filter="url(#s)"/><path d="M38 45c0-8.3 6.7-15 15-15h22c8.3 0 15 6.7 15 15v15c0 8.3-6.7 15-15 15H61.8L47.9 88.2c-2.1 2-5.6.5-5.6-2.4V74.1C39.6 71.4 38 67.8 38 64V45Z" fill="white" fill-opacity=".95"/><circle cx="54" cy="53" r="4" fill="#2563EB"/><circle cx="64" cy="53" r="4" fill="#2563EB"/><circle cx="74" cy="53" r="4" fill="#2563EB"/></svg>
