<svg xmlns="http://www.w3.org/2000/svg" viewBox="0 0 128 128" role="img" aria-label="Tiny Chat"><defs><linearGradient id="g" x1="24" y1="20" x2="108" y2="112" gradientUnits="userSpaceOnUse"><stop stop-color="#28e5a5"/><stop offset=".52" stop-color="#00d4ff"/><stop offset="1" stop-color="#168cf7"/></linearGradient><filter id="s" x="0" y="0" width="128" height="128" color-interpolation-filters="sRGB"><feDropShadow dx="0" dy="10" stdDeviation="10" flood-color="#00bce8" flood-opacity=".23"/></filter></defs><path d="M20 56c0-21 17-38 38-38h18c18.8 0 34 15.2 34 34v7c0 18.8-15.2 34-34 34H58L35.5 108c-3.8 2.5-8.7-.9-7.6-5.3l4.1-16.2A37.8 37.8 0 0 1 20 56Z" fill="url(#g)" filter="url(#s)"/><circle cx="50" cy="57" r="5" fill="#fff"/><circle cx="65" cy="57" r="5" fill="#fff"/><circle cx="80" cy="57" r="5" fill="#fff"/><path d="M88 18c12 2.2 21.6 11.8 24 24M90 30c6.2 1.7 11 6.5 12.7 12.7" fill="none" stroke="#00bfdc" stroke-width="6" stroke-linecap="round"/></svg>
